<?xml version="1.0" encoding="iso-8859-1"?>
<!-- Generator: Adobe Illustrator 19.0.0, SVG Export Plug-In . SVG Version: 6.00 Build 0)  -->
<svg version="1.1" id="Capa_1" xmlns="http://www.w3.org/2000/svg" xmlns:xlink="http://www.w3.org/1999/xlink" x="0px" y="0px"
	 viewBox="0 0 491.52 491.52" style="enable-background:new 0 0 491.52 491.52;" xml:space="preserve">
<circle style="fill:#45B39C;" cx="245.76" cy="245.76" r="245.76"/>
<path style="opacity:0.1;enable-background:new    ;" d="M137.881,104.96v281.6l104.884,104.884c1.001,0.012,1.99,0.076,2.994,0.076
	c135.73,0,245.76-110.03,245.76-245.76c0-1.004-0.064-1.993-0.076-2.994L353.639,104.96H137.881z"/>
<rect x="137.88" y="104.96" style="fill:#EBF0F3;" width="215.76" height="281.6"/>
<rect x="148.12" y="115.21" style="fill:#27A2DB;" width="195.28" height="59.72"/>
<g>
	<path style="fill:#FFFFFF;" d="M171.321,168.16v-38.58h-10.989v-7.62h31.534v7.62h-10.989v38.58H171.321z"/>
	<path style="fill:#FFFFFF;" d="M189.402,168.16l11.555-46.2h12.82l11.655,46.2h-10.289l-2.531-11.61h-10.989l-2.464,11.61H189.402z
		 M203.122,149.62h8.125l-4.096-19.38L203.122,149.62z"/>
	<path style="fill:#FFFFFF;" d="M226.697,168.16l12.554-23.58l-11.921-22.62h10.756l6.826,14.55l6.959-14.55h10.656l-12.354,22.62
		l12.687,23.58h-10.789l-7.426-15.42l-7.559,15.42L226.697,168.16L226.697,168.16z"/>
	<path style="fill:#FFFFFF;" d="M267.821,168.16v-46.2h26.34v7.68h-16.849v10.68h15.684v7.32h-15.684v12.72h17.249v7.8
		L267.821,168.16L267.821,168.16z"/>
	<path style="fill:#FFFFFF;" d="M300.621,151.93h9.557v2.97c0,2.84,0.394,4.775,1.182,5.805s2.148,1.545,4.079,1.545
		c2.02,0,3.557-0.46,4.612-1.38c1.054-0.92,1.582-2.28,1.582-4.08c0-1.38-0.366-2.565-1.099-3.555s-2.32-2.265-4.762-3.825
		l-4.895-3.12c-4.218-2.64-6.898-4.82-8.042-6.54c-1.143-1.72-1.715-3.88-1.715-6.48c0-3.88,1.276-6.92,3.829-9.12
		c2.553-2.2,6.072-3.3,10.556-3.3c4.751,0,8.391,1.17,10.922,3.51c2.531,2.34,3.796,5.7,3.796,10.08c0,0.44-0.006,0.78-0.017,1.02
		s-0.028,0.45-0.05,0.63H321.1v-1.23c0-2.5-0.455-4.29-1.365-5.37s-2.409-1.62-4.495-1.62c-1.532,0-2.736,0.405-3.613,1.215
		s-1.315,1.935-1.315,3.375c0,1.94,1.965,4.09,5.894,6.45l0.1,0.06l5.261,3.21c3.752,2.24,6.294,4.355,7.625,6.345
		c1.332,1.99,1.998,4.525,1.998,7.605c0,4.2-1.332,7.44-3.996,9.72s-6.471,3.42-11.422,3.42c-5.15,0-8.985-1.2-11.505-3.6
		c-2.52-2.4-3.779-6.06-3.779-10.98c0-0.52,0.044-1.38,0.133-2.58V151.93z"/>
</g>
<path style="fill:#E56353;" d="M167.809,286.239v-10.997c-6.815-0.405-11.945-2.671-15.39-6.797s-5.167-10.076-5.167-17.849v-2.155
	h13.428c0,0.295-0.018,0.737-0.055,1.326c-0.037,0.589-0.055,1.013-0.055,1.271c0,3.905,0.626,6.908,1.879,9.007
	s3.205,3.389,5.858,3.868v-25.088c-7.257-3.979-12.433-8.003-15.528-12.074s-4.642-8.851-4.642-14.34
	c0-6.373,1.741-11.457,5.222-15.252s8.298-5.839,14.45-6.134v-7.571h6.244v7.681c6.336,0.074,11.163,1.842,14.478,5.305
	c3.316,3.463,4.973,8.492,4.973,15.086v1.603h-13.097v-1.16c0-3.131-0.599-5.581-1.796-7.35c-1.197-1.768-2.864-2.708-5.001-2.818
	v22.601c8.4,4.347,14.137,8.492,17.213,12.433c3.076,3.942,4.614,8.86,4.614,14.754c0,7.257-1.833,12.912-5.498,16.965
	c-3.666,4.052-8.961,6.281-15.887,6.686v10.997h-6.243V286.239z M168.306,221.363l-0.055-19.673
	c-2.137,0.184-3.776,1.059-4.918,2.625s-1.713,3.712-1.713,6.438c0,2.063,0.543,3.97,1.63,5.719
	C164.337,218.223,166.022,219.853,168.306,221.363z M173.611,263.914c2.468-0.442,4.347-1.52,5.637-3.233
	c1.289-1.713,1.934-3.988,1.934-6.825c0-2.8-0.553-5.102-1.658-6.907c-1.105-1.805-3.076-3.61-5.913-5.415V263.914z"/>
<g>
	<rect x="210.38" y="193.55" style="fill:#D5D6DB;" width="133.02" height="7.68"/>
	<rect x="210.38" y="221.7" style="fill:#D5D6DB;" width="133.02" height="7.68"/>
	<rect x="210.38" y="249.79" style="fill:#D5D6DB;" width="133.02" height="7.68"/>
	<rect x="210.38" y="277.91" style="fill:#D5D6DB;" width="133.02" height="7.68"/>
	<rect x="147.25" y="306.04" style="fill:#D5D6DB;" width="196.15" height="7.68"/>
	<rect x="147.25" y="334.18" style="fill:#D5D6DB;" width="196.15" height="7.68"/>
	<rect x="147.25" y="362.29" style="fill:#D5D6DB;" width="129.64" height="7.68"/>
</g>
<g>
</g>
<g>
</g>
<g>
</g>
<g>
</g>
<g>
</g>
<g>
</g>
<g>
</g>
<g>
</g>
<g>
</g>
<g>
</g>
<g>
</g>
<g>
</g>
<g>
</g>
<g>
</g>
<g>
</g>
</svg>
